HIERARCHY
ROOT root
{
	OFFSET	0	13.1	24.9
	CHANNELS 6  Xposition Yposition Zposition Xrotation Yrotation Zrotation
	JOINT spine_1
	{
		OFFSET	0	9.99999	0
		CHANNELS 3  Xrotation Yrotation Zrotation
		JOINT spine_2
		{
			OFFSET	0	112	-10
			CHANNELS 3  Xrotation Yrotation Zrotation
			JOINT spine_3
			{
				OFFSET	0	206.5	19.3
				CHANNELS 3  Xrotation Yrotation Zrotation
				JOINT spine_4
				{
					OFFSET	0	110.4	14.6
					CHANNELS 3  Xrotation Yrotation Zrotation
					JOINT neck_1
					{
						OFFSET	0	71.8	-50.3
						CHANNELS 3  Xrotation Yrotation Zrotation
						JOINT neck_2
						{
							OFFSET	0	86.2	-25.8
							CHANNELS 3  Xrotation Yrotation Zrotation
							JOINT head_ee
							{
								OFFSET	0	179.8	-8.7
								CHANNELS 3  Xrotation Yrotation Zrotation
								End Site
								{
									OFFSET	1	0	0
								}
							}
						}
					}
					JOINT left_clavicle
					{
						OFFSET	-43.2	22.4	-70.8
						CHANNELS 3  Xrotation Yrotation Zrotation
						JOINT left_shoulder
						{
							OFFSET	-93.9	-5.79999	48.7
							CHANNELS 3  Xrotation Yrotation Zrotation
							JOINT left_elbow
							{
								OFFSET	-291.4	-30.8	15.2
								CHANNELS 3  Xrotation Yrotation Zrotation
								JOINT left_lowarm_twist
								{
									OFFSET	-110.7	-3.89999	13.6
									CHANNELS 3  Xrotation Yrotation Zrotation
									JOINT left_hand
									{
										OFFSET	-110.7	-3.89999	13.6
										CHANNELS 3  Xrotation Yrotation Zrotation
										JOINT left_ee
										{
											OFFSET	-80.8	-5.10001	12.1
											CHANNELS 3  Xrotation Yrotation Zrotation
											End Site
											{
												OFFSET	1	0	0
											}
										}
									}
								}
							}
						}
					}
					JOINT right_clavicle
					{
						OFFSET	43.2	22.4	-70.8
						CHANNELS 3  Xrotation Yrotation Zrotation
						JOINT right_shoulder
						{
							OFFSET	93.9	-5.79999	48.7
							CHANNELS 3  Xrotation Yrotation Zrotation
							JOINT right_elbow
							{
								OFFSET	291.4	-30.8	15.2
								CHANNELS 3  Xrotation Yrotation Zrotation
								JOINT right_lowarm_twist
								{
									OFFSET	110.7	-3.89999	13.6
									CHANNELS 3  Xrotation Yrotation Zrotation
									JOINT right_hand
									{
										OFFSET	110.7	-3.89999	13.6
										CHANNELS 3  Xrotation Yrotation Zrotation
										JOINT right_ee
										{
											OFFSET	80.8	-5.10001	12.1
											CHANNELS 3  Xrotation Yrotation Zrotation
											End Site
											{
												OFFSET	1	0	0
											}
										}
									}
								}
							}
						}
					}
				}
			}
		}
	}
	JOINT left_hip
	{
		OFFSET	-82.8	-127.5	0.300001
		CHANNELS 3  Xrotation Yrotation Zrotation
		JOINT left_knee
		{
			OFFSET	-28.2	-396.7	2.2
			CHANNELS 3  Xrotation Yrotation Zrotation
			JOINT left_ankle
			{
				OFFSET	-11.7	-411.3	35.4
				CHANNELS 3  Xrotation Yrotation Zrotation
				JOINT left_toes
				{
					OFFSET	0	-60	-88.6
					CHANNELS 3  Xrotation Yrotation Zrotation
					JOINT left_foot_ee
					{
						OFFSET	-22.5	-16.5	-42.2
						CHANNELS 3  Xrotation Yrotation Zrotation
						End Site
						{
							OFFSET	1	0	0
						}
					}
				}
			}
		}
	}
	JOINT right_hip
	{
		OFFSET	82.8	-127.5	0.300001
		CHANNELS 3  Xrotation Yrotation Zrotation
		JOINT right_knee
		{
			OFFSET	28.2	-396.7	2.2
			CHANNELS 3  Xrotation Yrotation Zrotation
			JOINT right_ankle
			{
				OFFSET	11.7	-411.3	35.4
				CHANNELS 3  Xrotation Yrotation Zrotation
				JOINT right_toes
				{
					OFFSET	0	-60	-88.6
					CHANNELS 3  Xrotation Yrotation Zrotation
					JOINT right_foot_ee
					{
						OFFSET	22.5	-16.5	-42.2
						CHANNELS 3  Xrotation Yrotation Zrotation
						End Site
						{
							OFFSET	1	0	0
						}
					}
				}
			}
		}
	}
}
MOTION
Frames: 14
Frame Time: 0.02
2990.62 608.945 -848.836 -41.1361 47.7162 32.0541 9.92298 0.287427 1.05873 9.92358 0.219479 1.07487 9.9263 0.177969 1.08251 9.92483 0.346689 1.04083 -11.8755 3.60489 -0.181596 -11.9001 6.9495 0.832357 -0.0 0.0 -0.0 1.96221 12.4978 4.74171 -47.7586 -39.5098 64.188 0.4732 -13.1927 0.0547208 -41.6007 -3.12299 4.17324 8.38362 -23.711 49.6665 -0.0 0.0 -0.0 12.4608 19.4794 -25.0308 -16.5666 20.0206 -52.8788 1.65349 39.3175 -0.590729 -46.1244 3.62476 -4.46501 -4.32939 18.12 39.3019 0.0 0.0 0.0 54.8859 -26.8599 -0.508805 -5.39648 0.184271 0.807396 15.8836 28.0905 -2.35875 -36.3821 0.0 0.0 -0.0 0.0 -0.0 18.9415 -4.23655 6.09502 -16.7395 -0.320208 -2.53977 38.5242 27.1808 5.58618 33.3728 -0.0 -0.0 0.0 0.0 0.0 
2959.36 608.052 -854.068 -40.3731 47.9013 31.191 9.90005 0.289435 1.11519 9.90072 0.217891 1.13134 9.90347 0.173757 1.13895 9.90183 0.351443 1.09723 -12.184 3.19849 -1.35061 -12.2047 6.93332 -0.387133 -0.0 0.0 -0.0 0.709413 12.6349 2.6695 -41.3215 -42.6454 66.548 0.434495 -12.147 0.0462311 -40.7237 -3.02846 4.11215 8.69094 -24.8722 51.3184 -0.0 0.0 -0.0 12.2812 19.9976 -24.5808 -19.001 19.9373 -53.2836 1.59957 38.3897 -0.5569 -48.0288 3.84259 -4.57586 -3.57359 19.7091 33.7985 0.0 0.0 0.0 55.7944 -27.3059 1.64322 -10.8915 0.292992 1.6433 20.0519 28.1794 -2.93234 -33.1019 0.0 0.0 -0.0 0.0 -0.0 17.9839 -1.59352 6.72842 -19.5418 -0.300809 -2.96924 38.2813 22.1734 5.29263 36.1778 -0.0 -0.0 0.0 0.0 0.0 
2940.68 605.381 -860.58 -39.813 47.9714 30.6295 9.82329 0.274124 1.28499 9.82419 0.191808 1.29982 9.82651 0.139389 1.30648 9.82429 0.343958 1.26808 -13.0767 2.71321 -0.823659 -13.0954 5.67754 0.0246751 -0.0 0.0 -0.0 0.83365 13.2451 2.93403 -37.9433 -43.5823 65.2759 0.325083 -9.14837 0.0260082 -39.7215 -2.9216 4.04059 8.6719 -25.2778 50.6869 -0.0 0.0 -0.0 12.319 20.2749 -24.648 -20.6055 19.8843 -53.6949 1.73446 40.6657 -0.64277 -48.8226 3.93444 -4.61991 -3.02875 13.4815 27.0513 0.0 0.0 0.0 56.3952 -27.4969 1.67459 -14.2269 0.319729 2.15429 23.7778 26.5455 -3.38657 -28.8183 0.0 0.0 -0.0 0.0 -0.0 16.457 0.493043 6.83469 -19.5461 -0.300763 -2.96991 38.0867 20.5469 5.20039 38.7658 -0.0 -0.0 0.0 0.0 0.0 
2912.35 603.424 -865.708 -39.576 47.9193 30.6378 9.82748 0.295366 1.26852 9.82835 0.214055 1.28474 9.83116 0.162335 1.29229 9.82902 0.364375 1.25045 -11.4007 1.83195 -2.15953 -11.3977 4.87773 -1.58798 -0.0 0.0 -0.0 0.316294 16.2093 2.39996 -35.562 -46.0386 64.6281 0.23041 -6.51162 0.0131071 -39.7066 -2.92001 4.03951 8.36074 -25.6097 47.4899 -0.0 0.0 -0.0 12.1314 19.7348 -24.2544 -22.2247 19.0993 -54.1399 1.72765 40.5544 -0.638338 -49.272 3.98671 -4.64429 -2.31842 9.89734 20.2632 0.0 0.0 0.0 56.9336 -27.7734 2.6152 -17.7914 0.315389 2.70107 25.8256 25.4932 -3.62044 -26.308 0.0 0.0 -0.0 0.0 -0.0 16.4377 2.59956 6.91141 -22.7144 -0.253532 -3.45371 38.3108 17.6751 5.10593 40.0701 -0.0 -0.0 0.0 0.0 0.0 
2877.0 607.277 -868.073 -40.1006 49.4624 30.6519 9.75785 0.288671 1.40724 9.75893 0.198548 1.42275 9.76144 0.139563 1.42974 9.75877 0.363591 1.38977 -11.6335 2.21139 -2.40761 -11.6323 5.75199 -1.71244 -0.0 0.0 -0.0 0.0623124 18.837 2.29491 -36.0228 -48.4453 62.5151 0.269495 -7.60419 0.0179098 -41.8581 -3.1509 4.19089 7.99401 -22.0307 47.7294 -0.0 0.0 -0.0 12.1816 18.5431 -24.4468 -26.2973 18.2679 -53.1357 1.69447 40.0064 -0.616884 -46.8405 3.70623 -4.50754 -2.68986 5.64229 20.9966 0.0 0.0 0.0 56.1751 -27.3174 5.78804 -18.2741 0.312187 2.77507 28.6986 24.0814 -3.93474 -25.9082 0.0 0.0 -0.0 0.0 -0.0 13.471 9.43768 7.26927 -23.4619 -0.238494 -3.56742 38.2438 9.26691 4.85484 39.653 -0.0 -0.0 0.0 0.0 0.0 
2843.75 611.491 -872.648 -37.7229 49.7676 27.9885 9.51597 0.302999 1.44155 9.5171 0.210665 1.4579 9.52 0.144044 1.46598 9.51719 0.373737 1.42485 -12.9394 1.57351 -1.28561 -12.9437 3.80035 -0.762244 -0.0 0.0 -0.0 0.529056 21.1186 3.21609 -37.7253 -50.487 60.2283 0.249707 -7.05169 0.0153858 -41.7549 -3.1397 4.18383 7.74316 -22.2498 45.2654 -0.0 0.0 -0.0 12.2776 19.3733 -24.6153 -29.494 18.3814 -53.9957 1.67679 39.7109 -0.605553 -50.7465 4.15952 -4.72137 -1.44507 2.66924 10.9012 0.0 0.0 0.0 54.6753 -27.1639 7.66578 -20.484 0.289571 3.11337 31.7683 26.3018 -4.34373 -20.7017 0.0 0.0 -0.0 0.0 -0.0 14.7545 10.9154 8.29179 -30.5087 -0.0242455 -4.627 36.3986 3.85033 4.59157 40.1454 -0.0 -0.0 0.0 0.0 0.0 
2810.96 619.495 -885.26 -36.3762 49.3895 27.2926 9.57231 0.349309 1.26401 9.57316 0.268175 1.28367 9.57727 0.210734 1.29434 9.57517 0.41249 1.24482 -12.6748 1.4727 -0.857941 -12.6793 3.34131 -0.391242 -0.0 0.0 -0.0 0.638448 20.5904 3.32403 -34.2936 -48.9794 60.871 0.336827 -9.47297 0.0279083 -41.5379 -3.11619 4.16891 7.55456 -20.1518 45.4474 -0.0 0.0 -0.0 12.2836 17.4843 -24.7411 -31.8471 17.9674 -54.9092 1.5376 37.2933 -0.51888 -53.9815 4.54518 -4.87477 -1.21344 1.60814 8.84838 0.0 0.0 0.0 52.4143 -25.3726 7.4995 -22.7954 0.251975 3.46603 34.5832 22.5167 -4.5529 -17.7934 0.0 0.0 -0.0 0.0 -0.0 16.8845 11.0769 8.45566 -35.7778 0.220229 -5.39819 38.9747 0.703217 4.79224 39.517 -0.0 -0.0 0.0 0.0 0.0 
2788.81 626.009 -904.145 -34.6034 50.4982 26.7032 9.32201 0.21273 1.22936 9.32284 0.134078 1.24041 9.324 0.0731574 1.24549 9.32194 0.268926 1.21831 -14.8794 2.54147 -0.359135 -14.9008 5.07297 0.496759 -0.0 0.0 -0.0 1.1176 14.3138 3.49499 -32.3094 -47.0464 62.8033 0.481252 -13.4091 0.0565732 -41.3985 -3.10111 4.15928 7.22903 -15.5649 46.2754 -0.0 0.0 -0.0 12.2013 14.6944 -24.6686 -32.8198 17.3198 -56.8873 1.42798 35.2727 -0.453999 -55.3587 4.71183 -4.9334 -0.43667 -3.03221 1.61661 0.0 0.0 0.0 48.741 -21.8529 5.83671 -23.3511 0.240817 3.55057 33.4063 18.2615 -4.34344 -15.2684 0.0 0.0 -0.0 0.0 -0.0 19.4812 17.722 5.22067 -44.769 0.7977 -6.6526 40.05 -6.79152 4.8646 38.197 -0.0 -0.0 0.0 0.0 0.0 
2769.81 629.065 -906.816 -35.5715 50.5678 27.5241 9.36994 0.164612 1.15576 9.37068 0.0907397 1.16389 9.37098 0.0345666 1.16691 9.36915 0.218413 1.14681 -13.2349 2.11909 -0.678681 -13.2467 4.45664 -0.00880009 -0.0 0.0 -0.0 2.56604 12.69 5.75956 -30.9812 -43.0274 61.13 0.569789 -15.7622 0.078874 -40.1584 -2.96802 4.07201 7.32128 -15.6094 47.1092 -0.0 0.0 -0.0 11.897 13.711 -24.0011 -33.4115 17.9136 -57.0384 1.2544 31.8551 -0.35799 -56.5884 4.86178 -4.98236 0.132121 0.0380592 -0.866346 0.0 0.0 0.0 49.2727 -24.6951 7.63827 -24.1364 0.223649 3.66987 37.3658 23.099 -4.85312 -13.4446 0.0 0.0 -0.0 0.0 -0.0 22.8895 18.5097 5.14469 -48.7101 1.11169 -7.17143 39.8864 -8.9159 4.85934 36.6324 -0.0 -0.0 0.0 0.0 0.0 
2745.99 631.719 -920.755 -32.9048 50.8484 25.3884 9.0971 0.189857 1.17635 9.09787 0.114624 1.18604 9.0987 0.0517039 1.19044 9.0968 0.239051 1.16734 -12.8779 2.875 0.309312 -12.8949 5.27181 1.1452 -0.0 0.0 -0.0 2.64602 5.29854 5.46257 -27.959 -40.336 64.3682 0.663581 -18.1967 0.10627 -38.0047 -2.7415 3.9137 6.83637 -12.7462 44.747 -0.0 0.0 -0.0 12.2914 15.3864 -24.8519 -35.3772 18.4102 -58.7014 1.10767 28.753 -0.283925 -58.9554 5.15313 -5.06747 0.44252 0.746325 -2.64671 0.0 0.0 0.0 44.8229 -14.9576 5.67829 -24.3268 0.21924 3.69875 38.5542 14.6449 -4.79569 -14.2196 0.0 0.0 -0.0 0.0 -0.0 25.6717 19.4166 2.90684 -54.5469 1.6408 -7.89791 35.5003 -14.5779 4.50257 36.8144 -0.0 -0.0 0.0 0.0 0.0 
2713.16 636.279 -927.367 -32.3757 51.2874 24.2977 9.2675 0.184688 1.12505 9.2682 0.112729 1.13452 9.26898 0.0559218 1.13873 9.26725 0.23505 1.11562 -13.4822 3.9947 -1.08307 -13.5262 8.27951 0.192339 -0.0 0.0 -0.0 3.41066 8.29438 7.00156 -27.7602 -35.8099 62.7073 0.765806 -20.7746 0.140378 -41.3902 -3.10021 4.15871 6.37175 -7.45565 43.9485 -0.0 0.0 -0.0 11.5125 16.745 -23.0136 -35.7949 17.8339 -62.6884 0.949863 25.1982 -0.212308 -58.1831 5.0577 -5.04103 0.868112 0.179142 -5.73448 0.0 0.0 0.0 39.5696 -8.87343 5.79456 -18.5924 0.309734 2.82385 40.7609 11.2094 -4.95306 -16.5821 0.0 0.0 -0.0 0.0 -0.0 26.029 15.3344 5.62156 -54.7092 1.65657 -7.91734 34.3097 -13.9964 4.37691 35.4435 -0.0 -0.0 0.0 0.0 0.0 
2686.63 642.035 -929.528 -32.6449 50.9385 24.4132 8.93356 0.130402 1.0473 8.93417 0.063499 1.05348 8.93415 0.00462453 1.05538 8.93264 0.171235 1.04141 -11.4077 1.79626 -0.474186 -11.4133 3.70867 0.029551 -0.0 0.0 -0.0 4.08476 6.94865 8.15861 -30.612 -34.3945 61.5461 0.947562 -25.1447 0.21133 -41.6506 -3.12839 4.17667 5.79726 -8.90018 37.9996 -0.0 0.0 -0.0 10.7973 16.8262 -21.391 -36.8184 19.9216 -63.4722 0.88923 23.7731 -0.187176 -57.2999 4.94899 -5.00921 1.18288 2.74913 -6.80076 0.0 0.0 0.0 38.0327 -1.42627 5.65864 -18.3536 0.3116 2.78725 40.4539 3.70817 -4.89792 -18.2183 0.0 0.0 -0.0 0.0 -0.0 29.2904 13.4109 7.07495 -56.7387 1.85831 -8.15644 29.7853 -12.6739 3.89003 34.0995 -0.0 -0.0 0.0 0.0 0.0 
2672.03 648.307 -933.864 -33.35 51.4076 24.2032 8.87247 0.174664 1.16225 8.87322 0.100359 1.17101 8.87381 0.0336393 1.17482 8.87195 0.218745 1.15477 -11.4265 3.10785 -0.880541 -11.4433 6.45596 -0.00461929 -0.0 0.0 -0.0 4.4822 5.06112 8.82956 -30.2024 -34.8567 60.5651 1.00918 -26.5607 0.238199 -41.7016 -3.13392 4.18017 5.28321 -7.28063 34.602 -0.0 0.0 -0.0 10.4083 17.1505 -20.4996 -37.7669 22.3887 -64.7866 0.826947 22.2761 -0.162814 -57.3803 4.95887 -5.01218 1.6059 4.48487 -8.95393 0.0 0.0 0.0 36.346 -0.664517 6.85664 -15.8231 0.321992 2.39917 40.2172 2.863 -4.87972 -15.7915 0.0 0.0 -0.0 0.0 -0.0 33.0814 11.0634 7.9459 -57.7502 1.96202 -8.27294 25.9471 -14.545 3.4732 34.6697 -0.0 -0.0 0.0 0.0 0.0 
2654.02 647.395 -943.073 -33.8636 51.8701 24.1506 9.06107 0.177725 1.24615 9.06193 0.0980751 1.25493 9.06236 0.0307308 1.25838 9.06022 0.229068 1.23774 -13.3276 3.00382 0.161787 -13.3487 5.61849 1.06454 -0.0 0.0 -0.0 4.98895 4.55567 9.75959 -27.1355 -30.1662 58.3152 1.08219 -28.1944 0.271779 -43.5064 -3.33155 4.30097 5.38271 -6.80446 35.6686 -0.0 0.0 -0.0 9.84217 15.1252 -19.3371 -37.7231 25.4347 -65.9278 0.664165 18.2117 -0.106453 -56.7719 4.88424 -4.98939 2.85668 9.62158 -15.3729 0.0 0.0 0.0 34.2838 7.19511 6.94768 -15.7155 0.322054 2.38266 40.6154 1.39064 -4.91972 -15.1347 0.0 0.0 -0.0 0.0 -0.0 35.0517 13.2373 6.82735 -58.6065 2.05141 -8.37013 21.4884 -19.4812 2.98388 32.794 -0.0 -0.0 0.0 0.0 0.0 
